<?xml version="1.0" standalone="no"?>
<!DOCTYPE svg PUBLIC "-//W3C//DTD SVG 20010904//EN"
 "http://www.w3.org/TR/2001/REC-SVG-20010904/DTD/svg10.dtd">
<svg version="1.0" xmlns="http://www.w3.org/2000/svg"
 width="329.000000pt" height="505.000000pt" viewBox="0 0 329.000000 505.000000"
 preserveAspectRatio="xMidYMid meet">

<g transform="translate(0.000000,505.000000) scale(0.100000,-0.100000)"
fill="#000000" stroke="none">
<path d="M2111 4893 c7 -12 15 -20 18 -17 3 2 -3 12 -13 22 -17 16 -18 16 -5
-5z"/>
<path d="M1170 4876 c-6 -9 -10 -21 -8 -28 3 -8 9 -4 17 10 15 28 9 39 -9 18z"/>
<path d="M1680 4529 c0 -26 3 -30 10 -19 7 10 10 11 10 2 0 -10 4 -10 19 0 11
7 18 15 15 19 -2 4 2 10 8 12 7 3 3 6 -9 6 -12 1 -28 4 -37 7 -13 5 -16 -1
-16 -27z"/>
<path d="M1662 4305 c0 -16 2 -22 5 -12 2 9 2 23 0 30 -3 6 -5 -1 -5 -18z"/>
<path d="M1430 4276 c0 -2 8 -10 18 -17 15 -13 16 -12 3 4 -13 16 -21 21 -21
13z"/>
<path d="M272 1119 c2 -7 10 -15 17 -17 8 -3 12 1 9 9 -2 7 -10 15 -17 17 -8
3 -12 -1 -9 -9z"/>
<path d="M3090 1042 c0 -12 7 -25 15 -28 8 -4 15 -12 15 -19 0 -15 -73 -30
-91 -19 -7 4 -9 3 -5 -4 3 -6 22 -16 41 -22 43 -14 49 -43 8 -35 -16 3 -22 2
-15 -1 6 -3 9 -11 5 -17 -4 -7 0 -8 13 -2 36 15 68 11 72 -9 4 -19 3 -19 -22
-3 -24 16 -26 16 -37 -5 -10 -18 -9 -20 5 -15 11 4 16 1 16 -11 0 -10 7 -27
15 -38 17 -23 20 -11 3 19 -10 20 -10 21 6 7 10 -8 22 -23 26 -35 7 -17 9 -14
15 18 5 23 3 42 -4 51 -8 9 -8 22 -2 39 8 19 19 26 55 31 46 7 73 26 37 26
-11 0 -23 5 -26 11 -5 6 -12 4 -20 -8 -19 -26 -24 -14 -15 35 9 49 4 52 -26
15 l-21 -27 -32 34 c-29 32 -31 33 -31 12z"/>
<path d="M2875 996 c4 -20 2 -36 -4 -40 -18 -11 -13 -26 9 -26 15 0 20 -7 20
-29 0 -33 17 -51 26 -27 4 12 20 16 55 16 27 0 49 4 49 8 0 16 -68 74 -79 68
-6 -4 -11 0 -11 11 0 27 -12 39 -43 47 -27 6 -28 6 -22 -28z"/>
<path d="M2670 845 c0 -8 7 -15 16 -15 14 0 14 3 4 15 -7 8 -14 15 -16 15 -2
0 -4 -7 -4 -15z"/>
<path d="M1288 833 c7 -3 16 -2 19 1 4 3 -2 6 -13 5 -11 0 -14 -3 -6 -6z"/>
<path d="M647 824 c-4 -4 -7 -14 -7 -23 0 -11 3 -12 11 -4 6 6 10 16 7 23 -2
6 -7 8 -11 4z"/>
<path d="M211 780 c-15 -13 -18 -20 -9 -20 8 0 23 9 33 20 23 26 7 25 -24 0z"/>
<path d="M276 775 c-3 -9 0 -15 9 -15 8 0 15 7 15 15 0 8 -4 15 -9 15 -5 0
-11 -7 -15 -15z"/>
<path d="M1450 774 c-14 -7 -19 -13 -12 -14 6 0 12 -10 12 -21 0 -17 3 -19 13
-10 8 6 17 8 20 4 4 -3 7 5 7 20 0 33 -9 38 -40 21z"/>
<path d="M2201 736 c-1 -44 2 -57 10 -49 6 6 28 9 50 6 25 -4 39 -2 39 6 0 6
-15 11 -33 11 -29 0 -35 4 -49 43 l-17 42 0 -59z"/>
<path d="M2671 768 c0 -13 3 -18 5 -11 3 7 12 9 20 6 8 -3 14 1 14 11 0 9 -8
16 -20 16 -14 0 -20 -6 -19 -22z"/>
<path d="M2760 725 c0 -8 -7 -15 -16 -15 -10 0 -15 -8 -13 -22 1 -13 -1 -31
-5 -40 -9 -20 1 -41 16 -36 15 5 48 97 41 114 -7 19 -23 18 -23 -1z"/>
<path d="M263 700 c-8 -11 -9 -21 -3 -25 10 -6 50 15 50 26 0 5 -24 19 -33 19
-1 0 -8 -9 -14 -20z"/>
<path d="M2687 713 c-4 -3 -7 -11 -7 -17 0 -6 5 -5 12 2 6 6 9 14 7 17 -3 3
-9 2 -12 -2z"/>
<path d="M2597 658 c3 -18 9 -42 13 -53 7 -18 8 -18 15 6 10 40 2 73 -17 77
-15 3 -17 -2 -11 -30z"/>
<path d="M160 660 c-9 -6 -10 -10 -3 -10 6 0 15 5 18 10 8 12 4 12 -15 0z"/>
<path d="M2477 650 c5 -20 7 -20 24 -4 24 22 24 24 -5 24 -19 0 -23 -4 -19
-20z"/>
<path d="M182 645 c-9 -11 -10 -20 -3 -33 7 -11 10 -12 11 -4 0 8 10 22 23 33
21 17 21 18 2 18 -11 0 -26 -6 -33 -14z"/>
<path d="M3125 628 c-4 -11 -17 -31 -29 -42 -22 -21 -34 -76 -16 -76 6 0 10
-7 10 -15 0 -18 0 -18 38 1 33 16 50 34 34 34 -10 0 -12 11 -14 83 -2 41 -13
49 -23 15z"/>
<path d="M1471 624 c0 -11 3 -14 6 -6 3 7 2 16 -1 19 -3 4 -6 -2 -5 -13z"/>
<path d="M2420 615 c-7 -9 -10 -18 -7 -22 8 -7 37 15 37 28 0 14 -16 11 -30
-6z"/>
<path d="M100 596 c0 -9 7 -12 18 -9 10 2 24 -3 32 -12 11 -13 10 -18 -3 -28
-24 -17 -12 -60 13 -47 29 15 31 56 3 82 -28 26 -63 34 -63 14z"/>
<path d="M620 585 c10 -12 10 -18 0 -30 -24 -28 -1 -28 29 1 35 32 32 44 -11
44 -26 0 -29 -2 -18 -15z"/>
<path d="M2470 590 c0 -5 11 -10 25 -10 14 0 25 5 25 10 0 6 -11 10 -25 10
-14 0 -25 -4 -25 -10z"/>
<path d="M3030 596 c0 -2 7 -9 15 -16 9 -7 15 -8 15 -2 0 5 -7 12 -15 16 -8 3
-15 4 -15 2z"/>
<path d="M694 575 c-10 -8 -14 -14 -9 -14 6 0 19 6 29 14 11 8 15 15 10 15 -6
0 -19 -7 -30 -15z"/>
<path d="M2150 580 c-8 -5 -22 -7 -32 -4 -22 7 -30 -9 -15 -30 15 -20 74 -38
82 -25 4 5 -5 9 -19 9 -30 0 -32 7 -9 32 19 21 15 31 -7 18z"/>
<path d="M2775 583 c-37 -6 -55 -20 -55 -45 0 -10 -7 -21 -15 -24 -35 -14 -3
-63 42 -64 15 0 28 10 38 30 9 17 12 30 9 30 -4 0 0 8 8 18 15 17 22 63 10 61
-4 -1 -20 -4 -37 -6z m-25 -83 c0 -5 -4 -10 -10 -10 -5 0 -10 5 -10 10 0 6 5
10 10 10 6 0 10 -4 10 -10z"/>
<path d="M81 554 c0 -11 3 -14 6 -6 3 7 2 16 -1 19 -3 4 -6 -2 -5 -13z"/>
<path d="M3183 538 c15 -37 62 -54 86 -30 14 14 11 22 -11 26 -7 1 -27 10 -45
19 -43 23 -45 22 -30 -15z"/>
<path d="M808 533 c7 -3 16 -2 19 1 4 3 -2 6 -13 5 -11 0 -14 -3 -6 -6z"/>
<path d="M700 510 c-14 -11 -41 -20 -62 -20 -46 0 -57 -16 -30 -43 21 -20 21
-20 16 0 -7 25 19 37 46 23 25 -14 37 -13 22 2 -9 9 -6 17 15 35 34 27 28 30
-7 3z"/>
<path d="M2610 520 c0 -5 5 -10 11 -10 5 0 7 5 4 10 -3 6 -8 10 -11 10 -2 0
-4 -4 -4 -10z"/>
<path d="M3010 510 c0 -13 11 -13 30 0 12 8 11 10 -7 10 -13 0 -23 -4 -23 -10z"/>
<path d="M189 479 c-9 -17 -7 -24 10 -40 11 -10 25 -19 31 -19 16 0 12 18 -6
28 -11 6 -13 12 -6 16 12 7 5 36 -9 36 -4 0 -13 -9 -20 -21z"/>
<path d="M3163 479 c-7 -7 -21 -12 -32 -13 -28 -1 -26 -19 2 -27 19 -5 26 -1
34 22 12 32 12 34 -4 18z"/>
<path d="M1593 473 c-7 -2 -12 -19 -12 -36 1 -18 3 -24 6 -15 2 9 13 20 23 23
11 4 17 12 13 21 -5 15 -10 16 -30 7z"/>
<path d="M2524 464 c9 -8 16 -24 16 -34 0 -10 5 -22 10 -25 6 -3 10 0 10 8 0
8 6 20 14 27 24 19 7 40 -31 40 -31 0 -33 -1 -19 -16z"/>
<path d="M1905 450 c-3 -5 -1 -10 4 -10 6 0 11 5 11 10 0 6 -2 10 -4 10 -3 0
-8 -4 -11 -10z"/>
<path d="M1937 442 c-19 -20 -23 -37 -7 -27 10 6 33 45 27 45 -2 0 -11 -8 -20
-18z"/>
<path d="M2025 450 c4 -6 11 -8 16 -5 14 9 11 15 -7 15 -8 0 -12 -5 -9 -10z"/>
<path d="M3073 446 c1 -11 9 -21 17 -23 10 -3 11 -2 4 4 -6 4 -14 15 -17 23
-5 11 -6 9 -4 -4z"/>
<path d="M557 437 c-11 -29 -9 -43 4 -30 6 6 9 19 7 29 -3 18 -4 18 -11 1z"/>
<path d="M3020 425 c0 -10 -8 -27 -17 -38 -18 -19 -17 -20 5 -8 28 15 39 38
23 54 -8 8 -11 6 -11 -8z"/>
<path d="M690 400 c-22 -31 -13 -41 14 -14 15 14 22 44 12 44 -3 0 -14 -13
-26 -30z"/>
<path d="M1785 420 l-40 -5 34 -13 c41 -14 44 -15 36 -3 -3 5 3 11 12 13 34 7
-2 14 -42 8z"/>
<path d="M2685 409 c-8 -12 -6 -15 21 -23 16 -5 23 -2 27 14 4 16 0 20 -18 20
-13 0 -27 -5 -30 -11z"/>
<path d="M2067 390 c-3 -13 0 -20 8 -20 21 0 27 16 11 29 -11 9 -15 7 -19 -9z"/>
<path d="M94 389 c-3 -6 -1 -16 5 -22 8 -8 11 -5 11 11 0 24 -5 28 -16 11z"/>
<path d="M23 383 c-7 -3 -13 -11 -13 -19 0 -9 4 -12 10 -9 6 3 10 -1 10 -10 0
-9 5 -13 10 -10 12 7 13 42 3 48 -5 2 -14 2 -20 0z"/>
<path d="M2260 376 c0 -9 7 -16 16 -16 9 0 14 5 12 12 -6 18 -28 21 -28 4z"/>
<path d="M1650 365 c-11 -13 -8 -15 14 -15 16 0 26 5 26 15 0 8 -6 15 -14 15
-7 0 -19 -7 -26 -15z"/>
<path d="M2790 360 c-8 -5 -22 -7 -31 -5 -18 6 -44 -19 -35 -34 3 -5 15 -7 26
-4 11 3 20 1 20 -5 0 -15 -20 -20 -57 -14 -39 5 -45 -14 -14 -42 16 -15 22
-16 43 -4 43 24 68 51 68 75 0 13 5 23 11 23 5 0 7 5 4 10 -8 12 -16 12 -35 0z"/>
<path d="M2134 349 c-7 -12 12 -29 32 -29 10 0 24 21 24 36 0 9 -49 3 -56 -7z"/>
<path d="M110 343 c0 -7 -9 -13 -20 -13 -13 0 -18 -5 -14 -15 4 -11 11 -12 24
-5 9 5 20 6 24 3 10 -10 7 10 -4 27 -6 10 -10 11 -10 3z"/>
<path d="M1867 331 c-2 -10 -1 -25 4 -32 6 -10 9 -4 9 19 0 36 -5 42 -13 13z"/>
<path d="M2404 315 c-3 -8 -3 -19 0 -24 10 -15 33 -3 39 20 4 14 0 19 -14 19
-11 0 -22 -7 -25 -15z"/>
<path d="M2630 300 c0 -5 -7 -10 -16 -10 -9 0 -14 -6 -11 -12 2 -7 10 -12 16
-10 7 1 10 -2 6 -8 -3 -5 -13 -10 -21 -10 -8 0 -12 -4 -9 -10 3 -5 -3 -10 -13
-10 -11 0 -22 -7 -26 -15 -3 -8 -1 -15 4 -15 6 0 10 5 10 10 0 14 27 12 34 -2
4 -10 8 -10 11 -2 3 7 15 9 27 6 15 -4 19 -2 13 8 -4 7 -3 15 4 19 8 5 7 16
-5 39 -16 33 -24 40 -24 22z"/>
<path d="M40 280 c0 -11 4 -20 9 -20 13 0 32 26 24 33 -13 14 -33 6 -33 -13z"/>
<path d="M1665 280 c-4 -6 7 -10 25 -10 18 0 29 4 25 10 -3 6 -15 10 -25 10
-10 0 -22 -4 -25 -10z"/>
<path d="M97 219 c-4 -16 -3 -18 9 -8 16 13 19 29 5 29 -5 0 -11 -9 -14 -21z"/>
<path d="M1740 230 c0 -6 9 -25 20 -40 14 -19 17 -31 10 -35 -6 -4 -17 1 -24
10 -10 14 -19 16 -42 10 -16 -5 -35 -7 -41 -6 -15 2 -17 -25 -3 -34 13 -8 -8
-42 -26 -42 -8 0 -14 4 -14 9 0 4 -7 8 -15 8 -22 0 -20 -57 3 -63 9 -2 2 -3
-16 -2 -21 2 -32 -1 -29 -9 2 -6 15 -10 28 -8 13 1 59 6 101 10 42 4 78 9 81
12 2 3 7 20 10 38 5 25 3 32 -9 32 -8 0 -12 5 -9 11 4 6 13 8 20 5 8 -3 18 1
23 7 7 8 -2 25 -29 56 -21 24 -39 38 -39 31z m6 -113 c2 -22 -1 -27 -12 -23
-9 3 -22 6 -30 6 -12 0 -13 12 -5 48 1 2 11 2 22 0 16 -2 23 -11 25 -31z m-66
-47 c0 -5 -4 -10 -10 -10 -5 0 -10 5 -10 10 0 6 5 10 10 10 6 0 10 -4 10 -10z
m37 -12 c-3 -8 -6 -5 -6 6 -1 11 2 17 5 13 3 -3 4 -12 1 -19z"/>
<path d="M3268 233 c7 -3 16 -2 19 1 4 3 -2 6 -13 5 -11 0 -14 -3 -6 -6z"/>
<path d="M1516 197 c3 -10 9 -15 12 -12 3 3 0 11 -7 18 -10 9 -11 8 -5 -6z"/>
<path d="M0 181 c0 -26 11 -32 43 -23 32 9 23 30 -16 38 -22 3 -27 1 -27 -15z"/>
<path d="M1890 185 c-7 -8 -19 -15 -26 -15 -14 0 -19 -12 -8 -23 10 -10 32 3
49 29 17 26 5 33 -15 9z"/>
<path d="M2703 183 c-20 -7 -15 -31 7 -35 20 -3 20 -3 2 -38 -11 -19 -29 -40
-40 -46 -19 -9 -20 -13 -7 -31 13 -19 18 -20 72 -9 32 7 57 16 56 21 -1 6 3
16 9 23 6 6 7 12 2 12 -4 0 1 6 11 14 16 12 17 16 6 30 -7 9 -24 16 -37 16
-13 0 -33 11 -46 24 -13 13 -29 22 -35 19z m45 -105 c-6 -18 -28 -21 -28 -4 0
9 7 16 16 16 9 0 14 -5 12 -12z"/>
<path d="M2300 169 c0 -5 5 -7 10 -4 6 3 10 8 10 11 0 2 -4 4 -10 4 -5 0 -10
-5 -10 -11z"/>
<path d="M3240 141 c0 -11 -5 -23 -10 -26 -8 -5 -7 -11 1 -21 6 -7 8 -21 5
-30 -5 -13 -9 -14 -21 -4 -8 7 -15 8 -15 2 0 -5 7 -15 15 -22 9 -7 14 -19 11
-27 -6 -14 6 -16 42 -7 17 5 22 14 22 41 0 31 -2 33 -20 23 -11 -6 -20 -18
-20 -27 0 -9 -3 -14 -6 -10 -11 11 7 45 26 50 11 3 20 10 20 16 0 8 -6 9 -19
2 -14 -8 -20 -7 -25 4 -3 8 -1 15 4 15 13 0 13 27 0 35 -5 3 -10 -3 -10 -14z"/>
<path d="M1168 109 c-7 -22 -14 -27 -21 -20 -15 15 -27 14 -27 -3 0 -7 9 -16
21 -19 13 -4 18 -10 14 -17 -6 -9 -10 -9 -16 1 -6 10 -9 4 -9 -18 0 -36 6 -38
60 -23 59 17 67 26 46 48 -17 19 -17 20 2 26 10 4 29 18 42 31 l24 26 -34 -2
c-19 -2 -43 -9 -52 -17 -16 -13 -18 -13 -18 1 0 28 -20 19 -32 -14z"/>
<path d="M2462 119 c-20 -7 -21 -11 -10 -29 12 -19 13 -19 26 6 16 31 14 34
-16 23z"/>
<path d="M1518 108 c9 -9 15 -9 24 0 9 9 7 12 -12 12 -19 0 -21 -3 -12 -12z"/>
<path d="M2150 103 c-8 -2 -21 -6 -28 -9 -10 -3 -9 -10 3 -35 9 -17 14 -34 11
-37 -10 -9 -30 16 -42 51 -10 26 -13 29 -19 14 -9 -22 18 -64 51 -79 18 -8 31
-8 49 0 32 15 32 30 1 42 -24 9 -44 30 -29 30 4 0 23 -4 41 -9 37 -11 40 -6
10 20 -22 20 -24 20 -48 12z"/>
<path d="M48 62 c-7 -10 -21 -21 -30 -25 -10 -3 -18 -11 -18 -18 0 -12 2 -12
53 20 20 12 37 27 37 32 0 16 -28 10 -42 -9z"/>
<path d="M2958 53 c7 -3 16 -2 19 1 4 3 -2 6 -13 5 -11 0 -14 -3 -6 -6z"/>
<path d="M594 33 c4 -9 1 -20 -6 -25 -10 -6 -8 -8 5 -8 12 0 17 8 17 25 0 14
-5 25 -11 25 -6 0 -8 -7 -5 -17z"/>
<path d="M1500 41 c0 -5 5 -13 10 -16 6 -3 10 -2 10 4 0 5 -4 13 -10 16 -5 3
-10 2 -10 -4z"/>
<path d="M1997 43 c-4 -3 -7 -11 -7 -17 0 -6 5 -5 12 2 6 6 9 14 7 17 -3 3 -9
2 -12 -2z"/>
<path d="M790 16 c0 -9 5 -16 10 -16 6 0 10 4 10 9 0 6 -4 13 -10 16 -5 3 -10
-1 -10 -9z"/>
</g>
</svg>
